# xmcd
#
# Track frame offsets: 
#        150
#        11772
#        27605
#        43155
#        63290
#        77965
#        102755
#        121430
#        135587
#        155852
#        174007
#        191657
#        212860
#
# Disc length: 3046 seconds
#
# Revision: 0
# Processed by: cddbd v1.5.1PL0 Copyright (c) Steve Scherf et al.
# Submitted via: ExactAudioCopy v0.95a5
#
DISCID=b60be40d
DTITLE=Runaway Truck Ramp - Chateau Fever
DYEAR=1900
DGENRE=Bluegrass
TTITLE0=Flatfooted
TTITLE1=Snowin' in the Moutains
TTITLE2=How Far I'd Fall For You
TTITLE3=Damn Old Man
TTITLE4=When I'm Lonesome
TTITLE5=Parallel Lines
TTITLE6=Puzzler's Gulch
TTITLE7=Cage
TTITLE8=Cleveland U-Turn
TTITLE9=Let Him Go On Mama
TTITLE10=Away
TTITLE11=Freddy's Sunny Oat Cakes
TTITLE12=Shrimps in a Row
EXTD=
EXTT0=
EXTT1=
EXTT2=
EXTT3=
EXTT4=
EXTT5=
EXTT6=
EXTT7=
EXTT8=
EXTT9=
EXTT10=
EXTT11=
EXTT12=
PLAYORDER=
